<svg width="36" height="36" viewBox="0 0 36 36" fill="none" xmlns="http://www.w3.org/2000/svg">
<path d="M16.369 5.36487C15.017 5.0292 13.6489 5.8531 13.3132 7.20509L9.24108 23.6067C8.90541 24.9587 9.72931 26.3268 11.0813 26.6625L12.6334 27.0478C13.2384 26.4214 14.1512 26.1252 15.0572 26.3501C15.9631 26.575 16.6308 27.2638 16.8726 28.1003L18.4253 28.4858C19.7773 28.8215 21.1454 27.9976 21.4811 26.6456L25.5532 10.244C25.8889 8.89199 25.065 7.52387 23.713 7.18821L22.1603 6.80271C21.5553 7.42902 20.643 7.72545 19.7371 7.50054C18.8311 7.2756 18.1628 6.58688 17.9211 5.75022L16.369 5.36487Z" fill="#1B2B68" stroke="white" stroke-width="1.30472" stroke-linecap="round" stroke-linejoin="round"/>
<line x1="13.2124" y1="9.75651" x2="24.9628" y2="12.6739" stroke="white" stroke-width="1.30472" stroke-dasharray="1.74 1.74"/>
<path d="M28.9565 11.86C28.0316 10.5529 26.2221 10.2431 24.915 11.1681L9.05789 22.3892C7.75078 23.3141 7.44099 25.1236 8.36595 26.4307L9.42783 27.9313C10.4247 27.84 11.4417 28.2675 12.0615 29.1434C12.6813 30.0192 12.7456 31.12 12.328 32.0297L13.3903 33.5309C14.3153 34.838 16.1247 35.1478 17.4319 34.2228L33.289 23.0017C34.5961 22.0768 34.9059 20.2673 33.9809 18.9602L32.9186 17.459C31.9219 17.5501 30.9051 17.1233 30.2854 16.2475C29.6655 15.3716 29.6007 14.2703 30.0184 13.3606L28.9565 11.86Z" fill="#1B2B68" stroke="white" stroke-width="1.30472" stroke-linecap="round" stroke-linejoin="round"/>
<line x1="22.8321" y1="13.3693" x2="30.8711" y2="24.7296" stroke="white" stroke-width="1.30472" stroke-dasharray="1.74 1.74"/>
<path d="M16.1446 21.2609C15.9872 20.6277 16.6892 20.1309 17.234 20.49L18.8681 21.5672C19.1019 21.7213 19.404 21.725 19.6415 21.5768L21.3021 20.5408C21.8556 20.1954 22.545 20.7096 22.3719 21.3386L21.8524 23.2257C21.7781 23.4956 21.8678 23.7841 22.0822 23.9642L23.5807 25.2233C24.0802 25.643 23.8042 26.4576 23.1525 26.4873L21.1972 26.5763C20.9176 26.5891 20.6709 26.7636 20.5659 27.0231L19.8315 28.8374C19.5866 29.4421 18.7266 29.4314 18.497 28.8207L17.8081 26.9887C17.7096 26.7266 17.4674 26.546 17.1881 26.5263L15.2357 26.3884C14.5849 26.3425 14.3293 25.5213 14.8392 25.1142L16.3686 23.8929C16.5874 23.7182 16.6844 23.432 16.6168 23.1603L16.1446 21.2609Z" fill="#FFB703" stroke="#1B2B68" stroke-width="1.14163"/>
</svg>
